<svg width="27" height="31" viewBox="0 0 27 31" fill="none" xmlns="http://www.w3.org/2000/svg">
<path d="M14.5684 25.8839C14.7079 25.675 14.9767 25.7428 15.183 25.7246C15.5902 25.7323 16.0007 25.6935 16.4057 25.7531C16.9451 25.854 17.4119 26.3074 17.5352 26.8736C17.6223 27.2988 17.5597 27.7739 17.3059 28.1253C17.0762 28.4718 16.6946 28.6904 16.2981 28.7263C15.9476 28.7548 15.597 28.7363 15.2464 28.734C15.2448 29.278 15.2502 29.8221 15.2464 30.3667C15.2364 30.4647 15.2464 30.5773 15.1946 30.6639C15.0396 30.8295 14.7494 30.8785 14.5865 30.6976C14.4846 30.5967 14.4873 30.4411 14.4857 30.3048C14.4905 28.9497 14.4778 27.5952 14.4894 26.2401C14.4954 26.1178 14.4824 25.9793 14.5684 25.8839ZM15.2505 26.5228C15.2505 26.9967 15.2478 27.4712 15.2505 27.9452C15.5471 27.9332 15.8419 27.9426 16.1374 27.9386C16.4945 27.9492 16.8057 27.6086 16.8235 27.2395C16.8542 26.8691 16.5244 26.5439 16.1865 26.5271C15.8742 26.5069 15.5625 26.5382 15.2505 26.5228Z" fill="#EEC137"/>
<path d="M21.3397 26.0845C21.3083 25.9083 21.1478 25.757 20.9773 25.7553C20.5161 25.7508 20.0544 25.7502 19.5927 25.7505C19.1309 25.7508 18.6689 25.7505 18.2077 25.7553C18.0373 25.757 17.8768 25.9083 17.8454 26.0845C17.841 26.1085 17.8392 26.133 17.84 26.1574C17.8438 26.2278 17.8676 26.2953 17.9084 26.3513C17.9497 26.4081 18.0028 26.4543 18.0637 26.4864C18.1245 26.5185 18.1915 26.5356 18.2596 26.5366C18.5822 26.5439 18.9051 26.534 19.2282 26.5402C19.2247 27.8172 19.2209 29.0942 19.2247 30.3712C19.2314 30.4694 19.2169 30.5798 19.2685 30.6684C19.3417 30.7643 19.4673 30.8122 19.5911 30.8125C19.7148 30.8128 19.8402 30.7643 19.9136 30.6684C19.965 30.5798 19.9504 30.4697 19.9571 30.3712C19.9609 29.0942 19.9571 27.8172 19.9536 26.5402C20.2778 26.534 20.5996 26.5439 20.9222 26.5366C20.9903 26.5356 21.0573 26.5185 21.1181 26.4864C21.179 26.4543 21.2321 26.4081 21.2735 26.3513C21.3146 26.2953 21.3387 26.2277 21.3426 26.1571C21.3442 26.1329 21.3432 26.1085 21.3397 26.0845Z" fill="#EEC137"/>
<path d="M23.1621 25.7797C23.6411 25.6809 24.1574 25.6925 24.6117 25.8941C25.3078 26.1764 25.8689 26.8021 26.079 27.5498C26.3382 28.4119 26.0985 29.4069 25.4978 30.0552C24.7492 30.915 23.4297 31.0796 22.4724 30.5101C21.6844 30.0354 21.1888 29.0782 21.2608 28.1315C21.2885 27.0196 22.1222 26.0121 23.1621 25.7797ZM23.3145 26.5686C22.93 26.6737 22.5607 26.8945 22.3363 27.2443C21.9958 27.7243 21.9255 28.3856 22.1333 28.9385C22.3195 29.4309 22.7281 29.8321 23.2202 29.9764C23.4456 30.0466 23.6826 30.068 23.9163 30.0391C24.15 30.0103 24.3755 29.9318 24.5788 29.8087C25.2774 29.41 25.6054 28.4435 25.3165 27.6741C25.0497 26.8485 24.1218 26.3571 23.3153 26.5686H23.3145Z" fill="#EEC137"/>
<path d="M10.0021 26.2011C9.96424 25.8684 10.4401 25.5848 10.6545 25.8741C11.09 26.5534 11.5082 27.2463 11.9584 27.9156C12.3306 27.3144 12.7087 26.7174 13.0804 26.1162C13.147 26.012 13.2109 25.9042 13.2994 25.819C13.5416 25.6069 14.0032 25.9257 13.8638 26.2448C13.7647 26.5096 13.5931 26.7333 13.4437 26.9684C13.1594 27.4169 12.8693 27.8606 12.5883 28.3116C12.5228 28.4212 12.4383 28.5226 12.3817 28.6384C12.3549 28.6948 12.3396 28.7565 12.3371 28.8195C12.3127 29.3949 12.3671 29.9737 12.3173 30.548C12.2513 30.938 11.5973 30.8787 11.5748 30.4886C11.5659 29.9405 11.5765 29.3915 11.5748 28.8422C11.5748 28.7636 11.5716 28.6801 11.5223 28.6168C11.0554 27.9256 10.6169 27.2145 10.1589 26.5162C10.0963 26.418 10.0257 26.3192 10.0021 26.2011Z" fill="#EEC137"/>
<path d="M3.33699 30.1487C3.03338 30.1487 2.73513 30.0646 2.47218 29.905C2.20923 29.7454 1.99085 29.5159 1.83896 29.2394C1.68707 28.963 1.60702 28.6494 1.60685 28.3301C1.60668 28.0108 1.6864 27.6971 1.838 27.4205C1.98959 27.1439 2.20773 26.9141 2.47051 26.7542C2.73329 26.5943 3.03145 26.5099 3.33506 26.5095C3.63866 26.5091 3.93703 26.5927 4.20018 26.7519C4.46334 26.9111 4.68203 27.1403 4.83428 27.4166H5.72553C5.52201 26.8271 5.12781 26.3317 4.61193 26.0172C4.09606 25.7026 3.4914 25.5889 2.90382 25.6959C2.31623 25.803 1.78318 26.1239 1.39799 26.6027C1.0128 27.0814 0.800023 27.6873 0.79691 28.3144C0.793797 28.9415 1.00055 29.5497 1.38096 30.0327C1.76138 30.5156 2.29122 30.8424 2.8777 30.9559C3.46419 31.0694 4.06995 30.9623 4.58892 30.6534C5.10788 30.3445 5.50699 29.8535 5.71635 29.2663H4.82024C4.66657 29.5356 4.44916 29.7584 4.18921 29.9131C3.92927 30.0677 3.63565 30.1489 3.33699 30.1487Z" fill="#EEC137"/>
<path d="M9.58012 30.293C9.29045 29.7323 8.95118 29.2 8.67424 28.6316C9.17555 28.4652 9.54137 27.9646 9.59963 27.4209C9.62802 27.2134 9.61316 27.0019 9.55607 26.8011C9.49899 26.6002 9.40105 26.4148 9.26904 26.2576C8.98966 25.9053 8.54824 25.7111 8.11441 25.7216C7.68626 25.7245 7.25704 25.7074 6.82916 25.7364C6.64544 25.7364 6.51266 25.9338 6.51646 26.1158C6.51158 26.7283 6.51646 27.3421 6.50589 27.9552C5.90676 27.9418 4.96132 27.9333 4.21451 27.9449C4.13114 27.7299 3.97958 27.5519 3.78552 27.4409C3.59146 27.33 3.36686 27.293 3.14981 27.3363C2.93277 27.3796 2.73665 27.5004 2.59473 27.6783C2.45281 27.8562 2.37382 28.0803 2.37116 28.3124C2.36851 28.5446 2.44235 28.7706 2.58016 28.952C2.71797 29.1335 2.91126 29.2592 3.12725 29.308C3.34324 29.3567 3.56862 29.3254 3.76516 29.2194C3.96171 29.1134 4.11731 28.9392 4.20557 28.7264C4.95617 28.7224 5.90839 28.7244 6.51212 28.7233C6.51483 29.3059 6.50589 29.8886 6.51483 30.4704C6.51212 30.6336 6.65222 30.7552 6.7896 30.7979C7.00909 30.864 7.29958 30.682 7.27248 30.4203C7.29958 29.8584 7.26977 28.7341 7.26977 28.7341L7.84587 28.7452C7.84587 28.7452 8.51518 29.9356 8.84848 30.5311C8.9352 30.68 9.07529 30.8574 9.26362 30.8022C9.48528 30.7797 9.70287 30.5234 9.58012 30.293ZM8.61598 27.7439C8.52172 27.8372 8.40463 27.9011 8.27781 27.9284C8.17673 27.9478 8.06699 27.941 7.96429 27.9438C7.85716 27.9467 7.75003 27.9488 7.64291 27.9504C7.52169 27.9521 7.40047 27.9533 7.27926 27.9541C7.27926 27.9541 7.27763 26.9997 7.27926 26.5227C7.57516 26.5287 7.87134 26.5185 8.16671 26.525C8.57317 26.5207 8.94847 26.932 8.84415 27.3631C8.80505 27.5107 8.72574 27.6431 8.61598 27.7439Z" fill="#EEC137"/>
<path d="M20.5161 12.052C19.9312 13.5976 18.3632 16.5099 18.3632 16.5099H21.5102V18.3403L16.4297 18.354L16.4385 16.5099C16.4385 16.5099 17.735 13.9884 18.2868 12.823C18.7303 11.8551 19.2003 10.8933 19.4974 9.86215C19.7491 8.98293 19.8024 8.06442 19.7831 7.15031C19.7764 6.84561 19.7596 6.53959 19.6895 6.24372C19.6518 6.08386 19.5934 5.92003 19.4718 5.81581C19.3945 5.75227 19.3019 5.71252 19.2045 5.701C19.1194 5.68959 19.033 5.69601 18.9502 5.71989C18.8675 5.74376 18.79 5.78461 18.7224 5.8401C18.4479 6.06929 18.4253 6.56122 18.393 6.89993C18.351 7.33932 18.3598 7.78312 18.351 8.22471C17.751 8.22074 17.1514 8.23443 16.5518 8.22692C16.5635 7.41615 16.5333 6.58463 16.7742 5.803C16.945 5.1437 17.3402 4.54004 17.9071 4.19162C18.6103 3.78403 19.4818 3.74473 20.2291 4.04281C20.7822 4.27464 21.2059 4.7785 21.404 5.36362C21.7124 6.22075 21.6792 7.1565 21.5769 8.05161C21.4267 9.43115 21.0167 10.7692 20.5161 12.052Z" fill="#EEC137"/>
<path d="M14.8185 11.4837C14.7992 13.7358 14.8106 15.988 14.8034 18.2379C14.1711 18.2379 13.5384 18.2454 12.9052 18.2441C12.9245 16.2613 12.9094 14.2803 12.9132 12.298C12.9375 11.7571 12.8976 11.2165 12.9106 10.6756C12.9362 9.36626 12.9006 8.05737 12.9106 6.74804C12.5913 6.74804 12.2724 6.75422 11.9531 6.75378C11.9712 6.272 11.9309 5.78492 11.98 5.30667C12.5624 4.93838 13.1486 4.54183 13.5828 3.98188C13.9894 3.9598 14.3977 3.97305 14.8047 3.96819C14.8076 6.47248 14.7988 8.97942 14.8185 11.4837Z" fill="#EEC137"/>
<path d="M5.55167 22.2087C4.67975 22.2061 3.80783 22.2224 2.93675 22.2087C2.95144 15.6422 2.93675 9.07479 2.94472 2.50826C1.96329 2.49811 0.981434 2.51754 0 2.50561C0 1.84013 0 1.17464 0 0.50916C1.84622 0.32634 3.6937 0.156619 5.54244 0C5.5609 7.40379 5.5395 14.8063 5.55167 22.2087Z" fill="#EEC137"/>
<path d="M10.1309 0.196962C11.0708 -0.0317845 12.043 0.0203239 13.0001 0.00884247C13.0001 0.806805 12.9946 1.60521 13.0039 2.40361C12.3992 2.45616 11.761 2.45175 11.2084 2.75203C10.8778 2.92602 10.6499 3.26428 10.5371 3.6286C10.3877 4.10906 10.3961 4.62086 10.389 5.12119C10.3801 6.09933 10.3986 7.07746 10.3831 8.05648C10.3571 8.75817 10.3042 9.49343 9.95048 10.1095C9.71509 10.5541 9.30221 10.8438 8.9145 11.1251C9.21913 11.319 9.50991 11.5464 9.74195 11.8317C10.039 12.2084 10.2123 12.6795 10.2874 13.1596C10.4246 13.9871 10.381 14.8306 10.3885 15.6665C10.394 16.4583 10.3692 17.2509 10.4188 18.0418C10.4641 18.6071 10.6453 19.2386 11.1426 19.5384C11.6994 19.9058 13.0035 19.9266 13.0035 19.9266C13.0035 19.9266 12.998 21.4523 12.998 22.2154C12.2213 22.1902 11.4421 22.2052 10.6697 22.1014C10.2547 22.0573 9.82628 21.9791 9.47047 21.7362C8.84107 21.3207 8.42148 20.6119 8.25364 19.8586C8.01069 18.8764 8.07993 17.8559 8.06986 16.8522C8.06986 16.0622 8.07237 15.2726 8.06146 14.4835C8.04342 13.905 7.96538 13.2938 7.63096 12.8142C7.37375 12.4322 6.94702 12.2331 6.52994 12.1139C6.52127 11.4256 6.52127 10.7368 6.52994 10.0476C6.87988 9.88027 7.26465 9.73851 7.52858 9.42587C7.93223 8.9538 8.04594 8.29582 8.06356 7.68112C8.08035 6.26492 8.05349 4.84873 8.07573 3.43297C8.11098 2.722 8.22259 1.98012 8.59813 1.37205C8.96947 0.824911 9.49396 0.351079 10.1309 0.196962Z" fill="#EEC137"/>
<path d="M20.5161 12.052C19.9312 13.5976 18.3632 16.5099 18.3632 16.5099H21.5102V18.3403L16.4297 18.354L16.4385 16.5099C16.4385 16.5099 17.735 13.9884 18.2868 12.823C18.7303 11.8551 19.2003 10.8933 19.4974 9.86215C19.7491 8.98293 19.8024 8.06442 19.7831 7.15031C19.7764 6.84561 19.7596 6.53959 19.6895 6.24372C19.6518 6.08386 19.5934 5.92003 19.4718 5.81581C19.3945 5.75227 19.3019 5.71252 19.2045 5.701C19.1194 5.68959 19.033 5.69601 18.9502 5.71989C18.8675 5.74376 18.79 5.78461 18.7224 5.8401C18.4479 6.06929 18.4253 6.56122 18.393 6.89993C18.351 7.33932 18.3598 7.78312 18.351 8.22471C17.751 8.22074 17.1514 8.23443 16.5518 8.22692C16.5635 7.41615 16.5333 6.58463 16.7742 5.803C16.945 5.1437 17.3402 4.54004 17.9071 4.19162C18.6103 3.78403 19.4818 3.74473 20.2291 4.04281C20.7822 4.27464 21.2059 4.7785 21.404 5.36362C21.7124 6.22075 21.6792 7.1565 21.5769 8.05161C21.4267 9.43115 21.0167 10.7692 20.5161 12.052Z" fill="#EEC137"/>
<path d="M14.8185 11.4837C14.7992 13.7358 14.8106 15.988 14.8034 18.2379C14.1711 18.2379 13.5384 18.2454 12.9052 18.2441C12.9245 16.2613 12.9094 14.2803 12.9132 12.298C12.9375 11.7571 12.8976 11.2165 12.9106 10.6756C12.9362 9.36626 12.9006 8.05737 12.9106 6.74804C12.5913 6.74804 12.2724 6.75422 11.9531 6.75378C11.9712 6.272 11.9309 5.78492 11.98 5.30667C12.5624 4.93838 13.1486 4.54183 13.5828 3.98188C13.9894 3.9598 14.3977 3.97305 14.8047 3.96819C14.8076 6.47248 14.7988 8.97942 14.8185 11.4837Z" fill="#EEC137"/>
<path d="M5.55167 22.2087C4.67975 22.2061 3.80783 22.2224 2.93675 22.2087C2.95144 15.6422 2.93675 9.07479 2.94472 2.50826C1.96329 2.49811 0.981434 2.51754 0 2.50561C0 1.84013 0 1.17464 0 0.50916C1.84622 0.32634 3.6937 0.156619 5.54244 0C5.5609 7.40379 5.5395 14.8063 5.55167 22.2087Z" fill="#EEC137"/>
<path d="M10.1309 0.196962C11.0708 -0.0317845 12.043 0.0203239 13.0001 0.00884247C13.0001 0.806805 12.9946 1.60521 13.0039 2.40361C12.3992 2.45616 11.761 2.45175 11.2084 2.75203C10.8778 2.92602 10.6499 3.26428 10.5371 3.6286C10.3877 4.10906 10.3961 4.62086 10.389 5.12119C10.3801 6.09933 10.3986 7.07746 10.3831 8.05648C10.3571 8.75817 10.3042 9.49343 9.95048 10.1095C9.71509 10.5541 9.30221 10.8438 8.9145 11.1251C9.21913 11.319 9.50991 11.5464 9.74195 11.8317C10.039 12.2084 10.2123 12.6795 10.2874 13.1596C10.4246 13.9871 10.381 14.8306 10.3885 15.6665C10.394 16.4583 10.3692 17.2509 10.4188 18.0418C10.4641 18.6071 10.6453 19.2386 11.1426 19.5384C11.6994 19.9058 13.0035 19.9266 13.0035 19.9266C13.0035 19.9266 12.998 21.4523 12.998 22.2154C12.2213 22.1902 11.4421 22.2052 10.6697 22.1014C10.2547 22.0573 9.82628 21.9791 9.47047 21.7362C8.84107 21.3207 8.42148 20.6119 8.25364 19.8586C8.01069 18.8764 8.07993 17.8559 8.06986 16.8522C8.06986 16.0622 8.07237 15.2726 8.06146 14.4835C8.04342 13.905 7.96538 13.2938 7.63096 12.8142C7.37375 12.4322 6.94702 12.2331 6.52994 12.1139C6.52127 11.4256 6.52127 10.7368 6.52994 10.0476C6.87988 9.88027 7.26465 9.73851 7.52858 9.42587C7.93223 8.9538 8.04594 8.29582 8.06356 7.68112C8.08035 6.26492 8.05349 4.84873 8.07573 3.43297C8.11098 2.722 8.22259 1.98012 8.59813 1.37205C8.96947 0.824911 9.49396 0.351079 10.1309 0.196962Z" fill="#EEC137"/>
<path d="M20.5218 0.00884247C21.4323 0.00884247 22.3483 0.00884244 23.2492 0.158543C23.549 0.214432 23.8353 0.332207 24.0917 0.505084C24.3481 0.67796 24.5694 0.902519 24.7429 1.16582C25.2376 1.86928 25.3786 2.76616 25.4118 3.62109C25.4537 5.07836 25.3895 6.53562 25.4592 7.99289C25.4902 8.49807 25.6035 9.02313 25.9031 9.43028C26.1716 9.79239 26.582 9.98625 26.9899 10.1148C27.0071 10.8028 26.9928 11.4916 26.9962 12.1801C26.5656 12.3166 26.128 12.5369 25.8632 12.9379C25.5473 13.4011 25.4512 13.9849 25.4436 14.5448C25.4017 15.7089 25.4281 16.8747 25.4218 18.0392C25.4218 18.94 25.4248 19.8965 24.9859 20.7024C24.5818 21.3993 23.9121 21.961 23.1292 22.0745C22.2635 22.2101 21.3845 22.2158 20.5117 22.2127C20.5117 21.4117 20.521 20.6102 20.5193 19.8091C21.165 19.7694 21.867 19.7649 22.4251 19.3746C22.9429 19.0019 23.0901 18.3011 23.1052 17.6806C23.1233 16.5325 23.1052 15.3843 23.1195 14.2362C23.1237 13.5588 23.182 12.8566 23.4791 12.2441C23.7141 11.7385 24.1425 11.3631 24.6078 11.1048C24.3107 10.884 23.9835 10.6915 23.7585 10.3819C23.3272 9.84008 23.1862 9.11896 23.1363 8.43228C23.0914 7.26823 23.1224 6.10242 23.112 4.93705C23.112 4.20974 23.1031 3.37027 22.5698 2.82843C22.0046 2.31662 21.2124 2.34267 20.5138 2.2941C20.5088 1.53191 20.5264 0.770595 20.5218 0.00884247Z" fill="#EEC137"/>
</svg>
